# xmcd
#
# Track frame offsets:
# 150
# 15267
# 30382
# 44195
# 59259
# 75848
# 94289
# 107738
# 121846
# 134655
# 148369
# 159465
# 173708
# 190102
# 203407
# 212851
# 227156
# 240818
# 257128
# 269412
# 283775
# 296628
# 307337
# 318005
# 331317
# 346146
#
# Disc length: 4783 seconds
#
# Revision: 0
# Processed by: cddbd v1.5.2PL0 Copyright (c) Steve Scherf et al.
# Submitted via: Axialis_AX_CDPlayer 2.6
#
DISCID=7912ad1a
DTITLE=Don Williams - The Best Of Don Williams
DYEAR=1900
DGENRE=
TTITLE0=Ain't It Amazing
TTITLE1=All I'm Missing Is You
TTITLE2=Crying In The Rain
TTITLE3=Don't You Think It's Time
TTITLE4=Fever
TTITLE5=I Believe In You
TTITLE6=I Wouldn't Want To Live If You Didn't Love Me
TTITLE7=I'll Need Someone To Hold Me (When I Cry)
TTITLE8=I'm Getting Good At Missing You
TTITLE9=I'm Just A Country Boy
TTITLE10=It Must Be Love
TTITLE11=Listen To The Radio
TTITLE12=Love Is On A Roll
TTITLE13=Love Me Over Again
TTITLE14=My Rifle, My Pony And Me
TTITLE15=My Woman's Love
TTITLE16=Peace Train
TTITLE17=Pressure Makes Diamonds
TTITLE18=Some Broken Hearts Never Mend
TTITLE19=The Long Black Veil
TTITLE20=The Story Of My Life
TTITLE21=Turn Out The Lights (And Love Me Tonight)
TTITLE22=We're All The Way
TTITLE23=Where Are You?
TTITLE24=You Get To Me
TTITLE25=You're My Best Friend
EXTD=
EXTT0=
EXTT1=
EXTT2=
EXTT3=
EXTT4=
EXTT5=
EXTT6=
EXTT7=
EXTT8=
EXTT9=
EXTT10=
EXTT11=
EXTT12=
EXTT13=
EXTT14=
EXTT15=
EXTT16=
EXTT17=
EXTT18=
EXTT19=
EXTT20=
EXTT21=
EXTT22=
EXTT23=
EXTT24=
EXTT25=
PLAYORDER=
